Coordinates
version=1
nRows=29
nColumns=24
inDegrees=yes

Units are S.I. units (second, meters, Newtons, ...)
Angles are in degrees.

endheader
time	pelvis_tilt	pelvis_list	pelvis_rotation	pelvis_tx	pelvis_ty	pelvis_tz	hip_flexion_r	hip_adduction_r	hip_rotation_r	knee_angle_r	ankle_angle_r	subtalar_angle_r	mtp_angle_r	hip_flexion_l	hip_adduction_l	hip_rotation_l	knee_angle_l	ankle_angle_l	subtalar_angle_l	mtp_angle_l	lumbar_extension	lumbar_bending	lumbar_rotation
      0.58300000	     -1.13692846	      3.08888466	      7.88781642	     -0.84267049	      1.00304115	      0.33595881	     26.11396786	     -4.16401789	    -10.10253878	      2.09349943	      2.99772188	      1.53625373	      4.26193893	    -13.47762358	      7.23863105	     12.95003980	     -7.71900144	     15.66900314	     -8.85313970	     -3.97263832	     -4.95478145	     -6.08204151	     -6.56792033
      0.58716667	     -1.09147742	      2.92444053	      7.96438230	     -0.83672170	      1.00241902	      0.33589130	     26.17785487	     -3.95684669	    -10.06510038	      1.36885836	      3.10046902	      1.26286163	      4.27345290	    -13.68273592	      7.03488190	     12.97318214	     -8.10277873	     15.81119485	     -8.89074385	     -3.97327579	     -4.91898444	     -5.85742952	     -6.60932825
      0.59133333	     -1.06754708	      2.73837925	      8.03360396	     -0.83068507	      1.00177748	      0.33585604	     26.24623477	     -3.72075363	     -9.92034297	      0.64366750	      3.11129742	      0.81351337	      4.30701072	    -13.85429293	      6.80687335	     12.92890150	     -8.51123924	     16.04504213	     -8.70796136	     -3.97894288	     -4.85457747	     -5.62033222	     -6.76251087
      0.59550000	     -1.02401802	      2.55978915	      8.09911749	     -0.82463857	      1.00119533	      0.33582848	     26.28819510	     -3.48603063	     -9.74518966	     -0.09838829	      3.05370639	      0.29599066	      4.35392492	    -14.02100977	      6.58744480	     12.82161588	     -8.96933584	     16.23395192	     -8.53428751	     -3.98590352	     -4.80947910	     -5.38272463	     -6.86016354
      0.59966667	     -0.95369865	      2.38267420	      8.16855230	     -0.81856835	      1.00066865	      0.33581533	     26.28515815	     -3.24528689	     -9.53258884	     -0.82467036	      2.87839769	     -0.32310573	      4.42627517	    -14.20011996	      6.36333153	     12.68345709	     -9.46881494	     16.39374049	     -8.34464739	     -3.99377734	     -4.80183782	     -5.15990282	     -6.95323681
      0.60383333	     -0.89711293	      2.18193573	      8.21520193	     -0.81238377	      1.00014312	      0.33582838	     26.29963951	     -2.97171041	     -9.29775205	     -1.57920955	      2.74185124	     -0.88000966	      4.48501579	    -14.39198004	      6.12237297	     12.61372022	     -9.90812511	     16.51310289	     -8.25238843	     -3.99314728	     -4.74314519	     -4.88788949	     -7.02404194
      0.60800000	     -0.82578601	      2.00358941	      8.27724816	     -0.80623045	      0.99967390	      0.33587467	     26.26999180	     -2.71113926	     -8.97679078	     -2.27246453	      2.38754875	     -1.68976188	      4.58211240	    -14.55504346	      5.89552462	     12.45148384	    -10.43754678	     16.61694148	     -8.06524378	     -3.98284688	     -4.72625195	     -4.67233357	     -7.11578513
      0.61216667	     -0.75822476	      1.79761052	      8.31676226	     -0.79997259	      0.99921730	      0.33595231	     26.24281592	     -2.41044552	     -8.63677199	     -2.96810650	      2.04927792	     -2.43538837	      4.67225853	    -14.73843462	      5.64475745	     12.34412146	    -10.91900067	     16.69350215	     -7.93307751	     -3.96562653	     -4.66205243	     -4.39220115	     -7.19487853
      0.61633333	     -0.70494534	      1.60018262	      8.36900725	     -0.79371431	      0.99878180	      0.33605600	     26.21876229	     -2.11601127	     -8.26362752	     -3.63271607	      1.57611410	     -3.29856100	      4.77824868	    -14.87107460	      5.40073057	     12.20048106	    -11.46947949	     16.74960432	     -7.76569894	     -3.93565615	     -4.61179712	     -4.16048754	     -7.27775863
      0.62050000	     -0.62736744	      1.39420754	      8.40755286	     -0.78739022	      0.99840565	      0.33619608	     26.15784423	     -1.79785130	     -7.86689165	     -4.26911081	      1.04224588	     -4.17945452	      4.89355524	    -15.02983712	      5.14280316	     12.03193224	    -12.01898009	     16.75994674	     -7.60484376	     -3.89259320	     -4.56423826	     -3.90104072	     -7.35072797
      0.62466667	     -0.54955036	      1.19503258	      8.44895143	     -0.78106677	      0.99805802	      0.33636830	     26.09120432	     -1.48080078	     -7.44533342	     -4.88395881	      0.42604720	     -5.10832794	      5.02405129	    -15.17669821	      4.88820409	     11.86422494	    -12.59223883	     16.75982266	     -7.41538544	     -3.83197943	     -4.52402647	     -3.66068913	     -7.42077497
      0.62883333	     -0.49652291	      0.99225818	      8.48773778	     -0.77469542	      0.99771930	      0.33657292	     26.04443281	     -1.15682996	     -7.01044276	     -5.47777496	     -0.25739464	     -6.04888064	      5.16513722	    -15.28039685	      4.63224757	     11.68578973	    -13.19219556	     16.71342418	     -7.22321129	     -3.75355173	     -4.44332684	     -3.42123117	     -7.49279293
      0.63300000	     -0.42004818	      0.80522878	      8.53393541	     -0.76834193	      0.99744675	      0.33682177	     25.96862404	     -0.84108270	     -6.56123330	     -6.05655103	     -0.98041492	     -7.04943597	      5.36272495	    -15.38449047	      4.38071990	     11.47719458	    -13.84306799	     16.68347149	     -6.98190147	     -3.62486713	     -4.40348804	     -3.22572518	     -7.54887909
      0.63716667	     -0.35945242	      0.59888113	      8.56911691	     -0.76192318	      0.99718578	      0.33709404	     25.90784780	     -0.50293587	     -6.12313449	     -6.62199517	     -1.74809563	     -7.99012215	      5.56495759	    -15.46765880	      4.11203662	     11.27443746	    -14.49487752	     16.59013366	     -6.75266442	     -3.47446024	     -4.32879923	     -2.98935947	     -7.61275945
      0.64133333	     -0.29364736	      0.38661468	      8.60264942	     -0.75548304	      0.99696492	      0.33739430	     25.83905886	     -0.15494274	     -5.69028871	     -7.17642501	     -2.54177613	     -8.91532923	      5.77716808	    -15.53817203	      3.83119391	     11.04249066	    -15.17748478	     16.46951017	     -6.49620958	     -3.29247941	     -4.25537178	     -2.75089820	     -7.67356222
      0.64550000	     -0.23830474	      0.17767048	      8.63247045	     -0.74901868	      0.99677441	      0.33772630	     25.78262197	      0.19037272	     -5.26929954	     -7.73215134	     -3.33382954	     -9.79560036	      5.98437886	    -15.58046904	      3.55311711	     10.80679244	    -15.88617992	     16.29847365	     -6.23422202	     -3.08587860	     -4.16355860	     -2.51754497	     -7.72839463
      0.64966667	     -0.18909863	     -0.03394668	      8.66375330	     -0.74253157	      0.99661675	      0.33808166	     25.73351038	      0.53679365	     -4.86637708	     -8.29089083	     -4.11162290	    -10.63503569	      6.20298385	    -15.59604465	      3.26536464	     10.53875098	    -16.62532391	     16.09737737	     -5.93457032	     -2.83280425	     -4.06532307	     -2.28932216	     -7.78312441
      0.65383333	     -0.11664882	     -0.24954201	      8.68880783	     -0.73603204	      0.99651817	      0.33845242	     25.67213498	      0.88478283	     -4.53528490	     -8.87449871	     -4.85572882	    -11.34381566	      8.60561144	    -15.61487781	      2.96326079	     10.22507487	    -17.39171541	     15.78196877	     -5.60951672	      0.28119736	     -3.99890759	     -2.05336690	     -7.82795091
      0.65800000	     -0.07342986	     -0.46501860	      8.71495375	     -0.72950758	      0.99643943	      0.33885244	     25.63154182	      1.23339618	     -4.17065864	     -9.44604310	     -5.56677877	    -12.07978868	      8.59398161	    -15.59081851	      2.66614351	      9.95784652	    -18.18073213	     15.49143138	     -5.31769702	      0.34569793	     -3.88330277	     -1.82355570	     -7.88330410
      0.66216667	     -0.00977383	     -0.68655136	      8.73753242	     -0.72297553	      0.99641781	      0.33927945	     25.57632717	      1.58931869	     -3.84169228	    -10.03928341	     -6.19261296	    -12.73653844	      8.59391755	    -15.55390782	      2.34905067	      9.61988920	    -19.02726956	     15.17692009	     -4.93580787	      0.47894450	     -3.79645144	     -1.58847025	     -7.92760466
      0.66633333	      0.05324449	     -0.90701984	      8.75586796	     -0.71643624	      0.99643819	      0.33971542	     25.52926170	      1.94077362	     -3.54783311	    -10.66019626	     -6.73471935	    -13.31586583	      8.59890554	    -15.49623715	      2.02907586	      9.26706939	    -19.90070925	     14.81217579	     -4.54037768	      0.67488249	     -3.70968818	     -1.35468482	     -7.96878183
      0.67050000	      0.11981384	     -1.12886379	      8.77071568	     -0.70988389	      0.99650323	      0.34017346	     25.48191377	      2.29200877	     -3.28579739	    -11.29959421	     -7.19518585	    -13.82948724	      8.60464567	    -15.42012800	      1.70059230	      8.90007458	    -20.80581461	     14.40044453	     -4.11416037	      0.94905472	     -3.62511501	     -1.12191412	     -8.00700821
      0.67466667	      0.21422670	     -1.35193949	      8.80358642	     -0.70333031	      0.99665698	      0.34063328	     25.39906934	      2.63814412	     -3.07949348	    -11.93999656	     -7.56342017	    -14.28292321	      8.60809427	    -15.34520262	      1.34632380	      8.50021684	    -21.74629953	     13.91171276	     -3.60531120	      1.45203042	     -3.57494344	     -0.89483897	     -8.03007237
      0.67883333	      0.27873183	     -1.57972099	      8.78681102	     -0.69676258	      0.99677651	      0.34114189	     25.37004779	      2.99721044	     -2.85919705	    -12.63702308	     -7.83338704	    -14.63104793	      8.59958138	    -15.21711894	      1.00398234	      8.05054838	    -22.72574896	     13.41938859	     -3.17843978	      1.86834814	     -3.48355605	     -0.64482895	     -8.07351954
      0.68300000	      0.37679229	     -1.81164038	      8.78978335	     -0.69019707	      0.99699106	      0.34165572	     25.29505772	      3.35528886	     -2.70231244	    -13.32497932	     -8.01280252	    -14.93660441	      8.57379970	    -15.09493342	      0.62990464	      7.57818275	    -23.74146654	     12.85969572	     -2.64769613	      2.44868881	     -3.43435179	     -0.39798112	     -8.09056072
      0.68716667	      0.47885257	     -2.02044669	      8.79215820	     -0.68364386	      0.99727641	      0.34216003	     25.21068381	      3.68528716	     -2.56557233	    -14.02497717	     -8.07546056	    -15.15412488	      8.18823421	    -14.96818835	      0.28357649	      7.17287255	    -24.73894482	     11.99553353	     -2.34020568	      7.86071077	     -3.39969687	     -0.18671997	     -8.10460013
      0.69133333	      0.57528138	     -2.25269072	      8.78405309	     -0.67709113	      0.99756243	      0.34267332	     25.13943856	      4.03184686	     -2.49441284	    -14.74423724	     -8.03351515	    -15.24394164	      8.18152917	    -14.79448861	     -0.09727605	      6.69804977	    -25.82161764	     11.31904701	     -1.85998055	      7.92876075	     -3.34927654	      0.07132144	     -8.12622016
      0.69550000	      0.68893960	     -2.47801011	      8.77128598	     -0.67055557	      0.99790228	      0.34322128	     25.03758110	      4.37767253	     -2.42580235	    -15.44787764	     -7.93938746	    -15.35852119	      8.15765879	    -14.60974680	     -0.48783618	      6.19068068	    -26.94104452	     10.57396214	     -1.32946060	      8.08124698	     -3.32366149	      0.30784840	     -8.13247198
      0.69966667	      0.81815631	     -2.70501858	      8.75312750	     -0.66404222	      0.99828922	      0.34378138	     24.91039863	      4.72574054	     -2.38656178	    -16.14164155	     -7.76664023	    -15.41458372	      8.11648854	    -14.41426197	     -0.89284848	      5.66267968	    -28.09538737	      9.76717726	     -0.79371654	      8.31581731	     -3.32092907	      0.55306339	     -8.12967351
